<?xml version="1.0" encoding="UTF-8"?>
<!DOCTYPE svg PUBLIC "-//W3C//DTD SVG 1.1//EN" "http://www.w3.org/Graphics/SVG/1.1/DTD/svg11.dtd">
<!-- Creator: CorelDRAW X7 -->
<svg xmlns="http://www.w3.org/2000/svg" xml:space="preserve" width="66.3611mm" height="9.6362mm" version="1.1" style="shape-rendering:geometricPrecision; text-rendering:geometricPrecision; image-rendering:optimizeQuality; fill-rule:evenodd; clip-rule:evenodd"
viewBox="0 0 2333 339"
 xmlns:xlink="http://www.w3.org/1999/xlink">
 <defs>
  <style type="text/css">
   <![CDATA[
    .str0 {stroke:#0099CC;stroke-width:19.4067}
    .fil5 {fill:none}
    .fil1 {fill:none;fill-rule:nonzero}
    .fil4 {fill:#0099CC}
    .fil3 {fill:#00CC33}
    .fil2 {fill:#0099CC;fill-rule:nonzero}
    .fil0 {fill:#00CC33;fill-rule:nonzero}
   ]]>
  </style>
 </defs>
 <g id="Layer_x0020_1">
  <metadata id="CorelCorpID_0Corel-Layer"/>
  <path class="fil0" d="M251 265c3,0 5,1 7,3l18 19c-14,16 -30,28 -49,37 -20,9 -43,13 -70,13 -24,0 -45,-4 -65,-12 -19,-9 -35,-20 -49,-35 -14,-15 -24,-32 -32,-53 -7,-21 -11,-44 -11,-68 0,-25 4,-48 12,-69 8,-20 19,-38 34,-53 15,-15 32,-26 52,-35 21,-8 43,-12 67,-12 25,0 46,4 63,11 18,8 33,18 47,31l-15 20c-1,2 -2,3 -3,4 -2,1 -4,2 -6,2 -2,0 -4,-1 -7,-3 -2,-1 -4,-3 -7,-5 -4,-2 -7,-4 -11,-7 -4,-2 -9,-5 -15,-7 -6,-2 -12,-4 -20,-5 -7,-2 -16,-2 -26,-2 -17,0 -33,3 -48,9 -15,6 -27,14 -38,26 -11,11 -19,24 -25,40 -5,17 -8,35 -8,54 0,21 3,39 8,55 6,17 14,30 25,41 10,11 22,20 36,26 14,5 29,8 45,8 10,0 18,0 26,-1 8,-2 15,-3 22,-6 7,-2 13,-5 19,-9 5,-4 11,-8 17,-14 2,-2 5,-3 7,-3z"/>
  <path id="1" class="fil0" d="M697 4c4,0 7,0 9,1 2,1 4,3 7,6l191 249c-1,-4 -1,-8 -1,-12 0,-4 -1,-7 -1,-11l0 -233 40 0 0 329 -23 0c-4,0 -6,0 -9,-2 -2,-1 -5,-3 -7,-6l-190 -248c0,4 0,8 0,11 0,4 1,8 1,11l0 234 -40 0 0 -329 23 0z"/>
  <polygon id="2" class="fil0" points="1062,333 1017,333 1017,4 1062,4 "/>
  <path id="3" class="fil1" d="M627 169c0,24 -4,47 -12,68 -8,20 -19,38 -33,53 -14,15 -31,26 -51,35 -20,8 -42,12 -67,12 -24,0 -46,-4 -66,-12 -20,-9 -37,-20 -51,-35 -14,-15 -25,-33 -33,-53 -8,-21 -12,-44 -12,-68 0,-25 4,-48 12,-68 8,-21 19,-39 33,-54 14,-15 31,-26 51,-35 20,-8 42,-12 66,-12 25,0 47,4 67,12 20,9 37,20 51,35 14,15 25,33 33,54 8,20 12,43 12,68zm-46 0c0,-21 -3,-39 -8,-55 -6,-16 -14,-30 -24,-41 -10,-11 -22,-19 -36,-25 -15,-6 -31,-9 -49,-9 -17,0 -33,3 -48,9 -14,6 -26,14 -37,25 -10,11 -18,25 -23,41 -6,16 -8,34 -8,55 0,20 2,38 8,54 5,16 13,30 23,41 11,11 23,20 37,25 15,6 31,9 48,9 18,0 34,-3 49,-9 14,-5 26,-14 36,-25 10,-11 18,-25 24,-41 5,-16 8,-34 8,-54z"/>
  <path class="fil2" d="M1176 4l0 171 9 0c2,0 5,0 6,-1 2,0 4,-2 6,-4l63 -68c2,-2 4,-4 6,-5 2,-2 5,-2 8,-2l32 0 -74 79c-1,2 -3,4 -5,6 -2,1 -4,3 -6,4 2,2 4,4 6,6 2,2 4,4 6,7l78 98 -32 0c-2,0 -5,0 -7,-1 -2,-2 -4,-3 -6,-6l-66 -82c-2,-2 -4,-4 -6,-5 -2,-1 -5,-1 -9,-1l-9 0 0 95 -36 0 0 -291 36 0z"/>
  <path id="1" class="fil2" d="M1377 95l0 128c0,15 3,27 10,35 7,8 18,12 32,12 10,0 20,-2 29,-7 9,-5 18,-12 25,-20l0 -148 35 0 0 200 -21 0c-5,0 -8,-2 -9,-7l-3 -22c-9,10 -18,18 -29,24 -11,6 -23,8 -37,8 -11,0 -21,-1 -29,-5 -9,-4 -16,-9 -21,-15 -6,-7 -10,-15 -13,-24 -3,-10 -4,-20 -4,-31l0 -128 35 0z"/>
  <path id="2" class="fil2" d="M1541 95l29 0c3,0 5,0 7,2 2,1 3,3 4,5l51 129c2,5 3,10 4,14 1,5 2,10 3,15 1,-5 2,-10 3,-15 2,-4 3,-9 5,-14l51 -129c1,-2 3,-4 4,-5 2,-2 4,-2 7,-2l27 0 -81 200 -32 0 -82 -200z"/>
  <path id="3" class="fil2" d="M1916 295l-15 0c-4,0 -7,0 -9,-1 -2,-1 -3,-4 -4,-7l-4 -19c-5,5 -10,9 -15,13 -5,4 -11,7 -16,10 -6,2 -11,4 -18,6 -6,1 -13,1 -21,1 -7,0 -15,-1 -21,-3 -7,-2 -13,-5 -18,-10 -5,-4 -9,-10 -12,-16 -3,-7 -5,-15 -5,-24 0,-8 3,-16 7,-23 4,-7 11,-14 21,-20 10,-5 22,-10 38,-14 16,-3 35,-5 58,-5l0 -16c0,-15 -4,-27 -10,-35 -7,-8 -17,-12 -30,-12 -9,0 -16,1 -22,3 -5,2 -11,4 -15,7 -4,3 -8,5 -11,7 -3,3 -6,4 -9,4 -2,0 -5,-1 -6,-2 -2,-1 -4,-3 -5,-5l-6 -11c11,-11 23,-19 36,-24 13,-5 27,-8 42,-8 12,0 22,2 30,6 9,3 16,8 22,15 6,7 11,15 14,24 3,9 4,20 4,31l0 128zm-91 -21c6,0 12,-1 17,-2 5,-2 10,-3 14,-6 5,-2 9,-5 14,-8 4,-3 8,-7 12,-11l0 -42c-17,0 -30,2 -42,4 -11,2 -20,4 -27,8 -8,3 -13,7 -16,11 -3,5 -5,10 -5,15 0,6 1,10 3,14 1,4 4,7 7,10 3,2 6,4 10,5 4,1 8,2 13,2z"/>
  <path id="4" class="fil2" d="M2030 298c-15,0 -28,-4 -36,-13 -9,-9 -13,-21 -13,-38l0 -123 -24 0c-2,0 -4,0 -5,-2 -2,-1 -2,-3 -2,-5l0 -15 32 -4 8 -62c1,-2 2,-3 3,-5 2,-1 3,-1 6,-1l17 0 0 69 58 0 0 25 -58 0 0 121c0,8 2,14 7,18 4,5 9,7 15,7 4,0 7,-1 10,-2 3,-1 5,-2 7,-3 2,-1 4,-2 5,-3 1,-1 3,-2 4,-2 2,0 3,1 5,4l10 17c-6,5 -13,10 -22,13 -9,3 -17,4 -27,4z"/>
  <path class="fil2" d="M2186 132c0,-1 0,-2 0,-2 0,-1 1,-2 1,-2 1,-1 1,-1 2,-1 1,-1 1,-1 2,-1 1,0 2,0 2,1 1,0 2,0 2,1 1,0 1,1 1,2 1,0 1,1 1,2 0,1 0,1 -1,2 0,1 0,1 -1,2 0,0 -1,1 -2,1 0,0 -1,0 -2,0 -1,0 -1,0 -2,0 -1,0 -1,-1 -2,-1 0,-1 -1,-1 -1,-2 0,-1 0,-1 0,-2z"/>
  <polygon id="1" class="fil2" points="2247,74 2247,81 2217,81 2217,103 2242,103 2242,110 2217,110 2217,137 2208,137 2208,74 "/>
  <polygon id="2" class="fil2" points="2268,137 2259,137 2259,74 2268,74 "/>
  <g id="_101956311712">
   <path class="fil3" d="M631 171c0,93 -75,168 -167,168 -93,0 -168,-75 -168,-168 0,-92 75,-167 168,-167 92,0 167,75 167,167zm-167 -134c-75,0 -135,60 -135,134 0,75 60,135 135,135 74,0 134,-60 134,-135 0,-74 -60,-134 -134,-134z"/>
   <path class="fil3" d="M584 171c0,67 -54,121 -120,121 -67,0 -121,-54 -121,-121 0,-66 54,-120 121,-120 66,0 120,54 120,120zm-120 -37c-21,0 -37,17 -37,37 0,21 16,37 37,37 20,0 37,-16 37,-37 0,-20 -17,-37 -37,-37zm45 72c-6,0 -11,5 -11,11 0,6 5,11 11,11 7,0 12,-5 12,-11 0,-6 -5,-11 -12,-11zm-61 -90l1 -38c0,0 -18,1 -40,15 -23,16 -30,35 -30,35l36 14c0,0 4,-9 15,-18 11,-7 18,-8 18,-8zm-38 34l-35 -14c0,0 -4,7 -5,15 -1,11 -1,16 -1,16l37 0c0,0 0,-4 1,-9 1,-5 3,-8 3,-8z"/>
  </g>
  <g id="_101956315424">
   <path class="fil4" d="M2306 94c9,-20 14,-34 15,-38 -15,-29 -44,-49 -78,-52 11,12 36,45 63,90z"/>
   <path class="fil4" d="M2327 67c-7,17 -22,53 -46,96 17,-1 29,-3 36,-4 10,-16 16,-35 16,-56 0,-12 -2,-25 -6,-36z"/>
   <path class="fil4" d="M2258 37c-16,-21 -27,-33 -27,-33l1 -1c-34,1 -64,18 -81,44 17,-3 57,-9 107,-10z"/>
   <path class="fil4" d="M2209 177c8,12 16,21 20,27 2,0 3,0 4,0 31,0 58,-14 76,-35 -20,3 -56,7 -100,8z"/>
   <path class="fil4" d="M2161 121c-7,15 -12,27 -14,33 15,25 40,43 70,48 -13,-16 -34,-44 -56,-81z"/>
   <path class="fil4" d="M2185 51c-21,2 -35,5 -40,6 -8,14 -12,30 -12,46 0,15 3,28 8,41 8,-19 22,-53 44,-93z"/>
  </g>
  <line class="fil5 str0" x1="1138" y1="329" x2="2333" y2= "329" />
 </g>
</svg>
